<svg xmlns="http://www.w3.org/2000/svg" viewBox="0 0 50 50"><path d="M5.102 3A2.107 2.107 0 0 0 3 5.102v39.8C3 46.055 3.945 47 5.102 47h11.8a2.23 2.23 0 0 0 1.094-.285c.297.176.637.285 1.004.285h12c.379 0 .73-.113 1.035-.3.313.187.676.3 1.063.3h11.804C46.055 47 47 46.168 47 45V5.102A2.106 2.106 0 0 0 44.902 3H33.098A2.106 2.106 0 0 0 31 5.102V12H19V5.102A2.106 2.106 0 0 0 16.902 3zm0 2h11.8c.043 0 .098.055.098.102V45c0-.168-.055 0-.098 0h-11.8C5.055 45 5 44.945 5 44.902v-39.8C5 5.055 5.055 5 5.102 5zm27.996 0h11.804c.043 0 .098.055.098.102V45c0-.168-.055 0-.098 0H33.098c-.043 0-.098-.055-.098-.098v-39.8c0-.047.055-.102.098-.102zM8 11a1.006 1.006 0 0 0-.879.496 1.01 1.01 0 0 0 0 1.008c.184.312.52.5.879.496h6c.36.004.695-.184.879-.496a1.01 1.01 0 0 0 0-1.008c-.184-.312-.52-.5-.879-.496zm28 0a1.006 1.006 0 0 0-.879.496 1.01 1.01 0 0 0 0 1.008c.184.312.52.5.879.496h6c.36.004.695-.184.879-.496a1.01 1.01 0 0 0 0-1.008c-.184-.312-.52-.5-.879-.496zm-17 3h12v31H19zm3 6a1.006 1.006 0 0 0-.879.496 1.01 1.01 0 0 0 0 1.008c.184.312.52.5.879.496h6c.36.004.695-.184.879-.496a1.01 1.01 0 0 0 0-1.008c-.184-.312-.52-.5-.879-.496zM8 34a1.006 1.006 0 0 0-.879.496 1.01 1.01 0 0 0 0 1.008c.184.312.52.5.879.496h6c.36.004.695-.184.879-.496a1.01 1.01 0 0 0 0-1.008c-.184-.312-.52-.5-.879-.496zm28 0a1.006 1.006 0 0 0-.879.496 1.01 1.01 0 0 0 0 1.008c.184.312.52.5.879.496h6c.36.004.695-.184.879-.496a1.01 1.01 0 0 0 0-1.008c-.184-.312-.52-.5-.879-.496zM8 38a1.006 1.006 0 0 0-.879.496 1.01 1.01 0 0 0 0 1.008c.184.312.52.5.879.496h6c.36.004.695-.184.879-.496a1.01 1.01 0 0 0 0-1.008c-.184-.312-.52-.5-.879-.496zm28 0a1.006 1.006 0 0 0-.879.496 1.01 1.01 0 0 0 0 1.008c.184.312.52.5.879.496h6c.36.004.695-.184.879-.496a1.01 1.01 0 0 0 0-1.008c-.184-.312-.52-.5-.879-.496zm-14 1c-.55 0-1 .45-1 1s.45 1 1 1h6.05c-.027-.332-.05-.66-.05-1 0-.34.023-.668.05-1z"/></svg>