<svg xmlns="http://www.w3.org/2000/svg" viewBox="0 0 50 50"><path d="M23 1C15.773 1 10.445 3.492 7 7.398 3.555 11.308 2 16.558 2 22c0 4.406 1.363 8.508 3.676 11.867C7.77 36.914 9 40.52 9 44.2V49h2v-4.8c0-4.122-1.371-8.114-3.676-11.466A18.896 18.896 0 0 1 4 22c0-5.059 1.445-9.809 4.5-13.273C11.555 5.257 16.227 3 23 3c6.8 0 11.207 1.98 14.117 5.008 2.91 3.023 4.356 7.195 4.89 11.71l.024.204 4.797 8.265c.246.446.121.891-.312 1.137L42 31.582v6.016c0 3.742-3.078 6.652-6.809 6.308l-.015-.004-4.176-.27V49h2v-3.234l2.008.129c4.87.457 8.992-3.438 8.992-8.297v-4.782l3.484-1.742c1.364-.758 1.84-2.508 1.09-3.86l-.004-.007-4.648-8.008c-.594-4.683-2.117-9.203-5.363-12.582C35.242 3.172 30.199 1 23 1zm2 12.984c-.477.004-.887.34-.98.809l-3 14c-.114.539.23 1.07.77 1.187a1.006 1.006 0 0 0 1.19-.773l3-14a1.004 1.004 0 0 0-.98-1.223zm-8.465 3.004a1.001 1.001 0 0 0-.836.414L12.25 22l3.45 4.598a.995.995 0 0 0 1.398.203.995.995 0 0 0 .203-1.399L14.75 22l2.55-3.402a1 1 0 0 0 .114-1.04c-.16-.34-.5-.558-.879-.57zm13.899 0a.998.998 0 0 0-.852.586.99.99 0 0 0 .117 1.024L32.25 22l-2.55 3.402a.995.995 0 0 0 .202 1.399.995.995 0 0 0 1.399-.203L34.75 22l-3.45-4.598a.999.999 0 0 0-.866-.414z"/></svg>