<svg xmlns="http://www.w3.org/2000/svg" viewBox="0 0 50 50"><path d="M20 2c-2.197 0-4 1.803-4 4v3H8c-3.854 0-7 3.146-7 7v31a1 1 0 0 0 1 1h46a1 1 0 0 0 1-1V16c0-3.854-3.146-7-7-7h-8V6c0-2.197-1.803-4-4-4H20zm0 2h10c1.117 0 2 .883 2 2v3H18V6c0-1.117.883-2 2-2zM8 11h34c2.774 0 5 2.226 5 5v30H3V16c0-2.774 2.226-5 5-5zm17.95 5c-2.357 0-4.33.529-5.755 1.674C18.771 18.819 18 20.579 18 22.625c0 .728.24 1.424.479 2.113a2.275 2.275 0 0 0-.395 1.606c.093.791.306 1.388.652 1.838.128.165.32.162.479.275.12.864.44 1.656.834 2.29.237.38.488.711.724.98.071.08.163.128.227.197v1.289c-.156.364-.423.631-.98.91-.593.296-1.417.55-2.28.893-.862.342-1.788.784-2.527 1.582C14.474 37.396 14 38.55 14 40a1 1 0 0 0 1 1h20a1 1 0 0 0 1-1c0-1.449-.474-2.604-1.213-3.402-.739-.798-1.665-1.24-2.527-1.582-.863-.343-1.687-.597-2.28-.893-.557-.279-.824-.546-.98-.91v-1.29c.064-.068.156-.116.227-.196.236-.268.487-.597.726-.977.385-.61.632-1.416.78-2.24.193-.122.418-.131.57-.328.346-.45.559-1.047.652-1.838h-.002a2.268 2.268 0 0 0-.4-1.614c.232-.717.447-1.44.447-2.105 0-1.771-.74-3.206-1.719-4.154C29.303 17.522 28.127 17 27 17h.092l-.266-.482A1 1 0 0 0 25.95 16zm-.554 2.068.227.414A1 1 0 0 0 26.5 19h.5c.431 0 1.256.29 1.889.904.632.614 1.111 1.492 1.111 2.721a4.74 4.74 0 0 1-.412 1.945 1 1 0 0 0 .33 1.215c.027.04.073.14.05.324-.063.545-.198.782-.247.846a1 1 0 0 0-.8.947c-.014.49-.298 1.208-.66 1.782-.18.286-.375.54-.532.718-.158.178-.354.297-.2.215A1 1 0 0 0 27 31.5v2a1 1 0 0 0 .06.344c.375 1.025 1.208 1.657 2.026 2.066.818.409 1.679.664 2.435.965.757.3 1.387.636 1.797 1.08.21.227.229.71.348 1.045H16.334c.12-.335.138-.818.348-1.045.41-.444 1.04-.78 1.797-1.08.756-.3 1.617-.556 2.435-.965.818-.409 1.65-1.04 2.025-2.066A1 1 0 0 0 23 33.5v-2a1 1 0 0 0-.53-.883c.155.082-.04-.035-.197-.213a5.582 5.582 0 0 1-.527-.715c-.355-.57-.626-1.282-.629-1.761a1 1 0 0 0-.799-.973c-.049-.064-.183-.301-.248-.846-.021-.183.024-.284.051-.324a1 1 0 0 0 .33-1.215c-.294-.666-.451-1.332-.451-1.945 0-1.579.5-2.631 1.447-3.393.85-.682 2.21-1.078 3.95-1.164z"/></svg>