<svg xmlns="http://www.w3.org/2000/svg" viewBox="0 0 50 50">
    <path d="M 24.921875 3 C 18.581252 3 14.303756 4.9302084 11.599609 8.0019531 C 8.9557509 11.005216 7.8672852 14.978385 7.3984375 19.066406 L 3.3457031 26.050781 A 1.0001 1.0001 0 0 0 3.3359375 26.066406 C 2.646307 27.307427 3.0876317 28.925449 4.3378906 29.621094 A 1.0001 1.0001 0 0 0 4.3769531 29.640625 L 7.4199219 31.162109 L 8.3984375 37.929688 A 1.0001 1.0001 0 0 0 8.4003906 37.943359 C 8.6154808 39.287826 9.3136276 40.53304 10.292969 41.470703 C 11.272309 42.408367 12.573122 43.05731 14.001953 43 L 17 43 L 17 46 L 17 47 L 17.832031 47 A 1.0001 1.0001 0 0 0 18.158203 47 L 19 47 L 19 45 L 19 42 A 1.0001 1.0001 0 0 0 18 41 L 13.962891 41 A 1.0001 1.0001 0 0 0 13.921875 41 C 13.15671 41.03069 12.347191 40.67018 11.675781 40.027344 C 11.004372 39.384507 10.51091 38.478439 10.375 37.628906 L 9.3242188 30.359375 A 1.0001 1.0001 0 0 0 8.78125 29.607422 L 5.3105469 27.873047 C 4.9828058 27.690692 4.897568 27.378042 5.0859375 27.039062 L 9.2011719 19.947266 A 1.0001 1.0001 0 0 0 9.3300781 19.552734 C 9.7571873 15.578233 10.80346 11.932771 13.101562 9.3222656 C 15.399668 6.7117604 18.976498 5 24.921875 5 C 25.607616 5 26.266517 5.0348609 26.912109 5.0917969 A 1.0001 1.0001 0 1 0 27.087891 3.0996094 C 26.395483 3.0385451 25.676134 3 24.921875 3 z M 37 3 C 31.494165 3 27 7.4413793 27 12.908203 C 27 16.24509 28.457858 18.295978 29.785156 19.652344 C 30.448805 20.330527 31.068478 20.8645 31.460938 21.320312 C 31.853395 21.776127 32 22.0719 32 22.453125 L 32 25 L 32 26 L 32 28.818359 C 32 30.031592 33.056857 30.935734 34.179688 30.990234 C 34.590935 32.154487 35.701526 33 37 33 C 38.298474 33 39.409065 32.154487 39.820312 30.990234 C 40.942839 30.935734 42 30.031592 42 28.818359 L 42 26 L 42 25 L 42 22.455078 C 42 21.841495 42.183287 21.460863 42.5625 20.986328 C 42.941713 20.511793 43.538383 20.001847 44.195312 19.367188 C 45.509172 18.097869 47 16.188841 47 12.910156 C 47 7.4424436 42.505835 3 37 3 z M 37 5 C 41.436165 5 45 8.5338698 45 12.910156 C 45 15.633471 43.990828 16.783756 42.804688 17.929688 C 42.211616 18.502652 41.558287 19.03966 41 19.738281 C 40.441713 20.436903 40 21.355161 40 22.455078 L 40 25 L 38 25 L 38 16.414062 L 40.707031 13.707031 A 1.0001 1.0001 0 0 0 39.990234 11.986328 A 1.0001 1.0001 0 0 0 39.292969 12.292969 L 37 14.585938 L 34.707031 12.292969 A 1.0001 1.0001 0 0 0 33.990234 11.990234 A 1.0001 1.0001 0 0 0 33.292969 13.707031 L 36 16.414062 L 36 25 L 34 25 L 34 22.453125 C 34 21.46385 33.521605 20.648655 32.976562 20.015625 C 32.431522 19.382595 31.801195 18.853098 31.214844 18.253906 C 30.042142 17.055522 29 15.701316 29 12.908203 C 29 8.5330273 32.563835 5 37 5 z M 34 27 L 40 27 L 40 28.818359 C 40 28.966931 39.965697 29 39.714844 29 L 34.285156 29 C 34.032659 29 34 28.966931 34 28.818359 L 34 27 z M 36.779297 34.986328 A 1.0001 1.0001 0 0 0 35.818359 35.681641 C 35.295238 37.244625 35 38.894009 35 40.59375 L 35 45 L 35 46 L 35 47 L 35.832031 47 A 1.0001 1.0001 0 0 0 36.158203 47 L 37 47 L 37 46 L 37 45 L 37 40.59375 C 37 39.125491 37.253965 37.695375 37.714844 36.318359 A 1.0001 1.0001 0 0 0 36.779297 34.986328 z">
    </path>
</svg>