<svg xmlns="http://www.w3.org/2000/svg" viewBox="0 0 50 50"><path d="M24.922 3C18.582 3 14.304 4.93 11.6 8.002c-2.644 3.003-3.733 6.976-4.202 11.064l-4.052 6.985a1 1 0 0 0-.01.015c-.69 1.241-.248 2.86 1.002 3.555a1 1 0 0 0 .039.02l3.043 1.521.978 6.768a1 1 0 0 0 .002.013c.215 1.345.914 2.59 1.893 3.528.98.937 2.28 1.586 3.709 1.529H17v4h.832a1 1 0 0 0 .326 0H19v-5a1 1 0 0 0-1-1h-4.037a1 1 0 0 0-.041 0c-.765.03-1.575-.33-2.246-.973-.672-.642-1.165-1.549-1.301-2.398l-1.05-7.27a1 1 0 0 0-.544-.752l-3.47-1.734c-.328-.182-.413-.495-.225-.834L9.2 19.947a1 1 0 0 0 .13-.394c.426-3.975 1.472-7.62 3.77-10.23C15.4 6.711 18.977 5 24.922 5c.687 0 1.346.035 1.991.092a1 1 0 1 0 .176-1.992 24.55 24.55 0 0 0-2.166-.1zM37 3c-5.506 0-10 4.441-10 9.908 0 3.337 1.458 5.388 2.785 6.744.664.679 1.283 1.212 1.676 1.668.392.456.539.752.539 1.133v6.365c0 1.214 1.057 2.118 2.18 2.172A3.006 3.006 0 0 0 37 33c1.298 0 2.41-.846 2.82-2.01 1.123-.054 2.18-.958 2.18-2.172v-6.363c0-.614.183-.994.563-1.469.379-.474.975-.984 1.632-1.619C45.51 18.097 47 16.19 47 12.91 47 7.442 42.506 3 37 3zm0 2c4.436 0 8 3.534 8 7.91 0 2.723-1.01 3.874-2.195 5.02-.593.573-1.247 1.11-1.805 1.808-.558.699-1 1.617-1 2.717V25h-2v-8.586l2.707-2.707a1 1 0 0 0-.717-1.72 1 1 0 0 0-.697.306L37 14.586l-2.293-2.293a1 1 0 0 0-.717-.303 1 1 0 0 0-.697 1.717L36 16.414V25h-2v-2.547c0-.99-.478-1.804-1.023-2.437-.545-.633-1.176-1.163-1.762-1.762C30.042 17.056 29 15.7 29 12.908 29 8.533 32.564 5 37 5zm-3 22h6v1.818c0 .149-.034.182-.285.182h-5.43c-.252 0-.285-.033-.285-.182V27zm2.78 7.986a1 1 0 0 0-.962.696A15.451 15.451 0 0 0 35 40.594V47h.832a1 1 0 0 0 .326 0H37v-6.406c0-1.469.254-2.899.715-4.276a1 1 0 0 0-.936-1.332z"/></svg>